<?xml version="1.0" standalone="no"?><!DOCTYPE svg PUBLIC "-//W3C//DTD SVG 1.1//EN" "http://www.w3.org/Graphics/SVG/1.1/DTD/svg11.dtd"><svg t="1728581167936" class="icon" viewBox="0 0 1024 1024" version="1.1" xmlns="http://www.w3.org/2000/svg" p-id="7674" xmlns:xlink="http://www.w3.org/1999/xlink" width="200" height="200"><path d="M711.121455 300.329891c0 145.296291-115.972655 263.093527-259.016146 263.093527h-1.191564l1.563928 19.735273-83.483928-33.568582c-102.288291-35.188364-175.904582-133.492364-175.904581-249.260218C193.089164 155.0336 309.061818 37.236364 452.105309 37.236364c35.579345 0 69.483055 7.279709 100.352 20.48l84.861673 33.885091-23.216873 3.444363a264.154764 264.154764 0 0 1 97.000727 205.284073zM456.145455 949.527273C677.217745 949.527273 856.436364 874.570473 856.436364 782.112582c0-33.456873-23.458909-64.605091-63.860364-90.763637l9.979345-1.657018-62.8736-25.972363 0.074473 0.242036c-72.480582-30.440727-172.776727-49.282327-283.610763-49.282327-221.072291 0-400.290909 74.9568-400.29091 167.414691 0 53.154909 59.205818 100.500945 151.496146 131.183709l64.3072 26.195782 1.824582-8.359564c54.756073 11.766691 116.847709 18.413382 182.662982 18.413382z" fill="#6D90FF" p-id="7675"></path><path d="M545.196218 600.659782c143.043491 0 259.016145-117.797236 259.016146-263.093527S688.239709 74.472727 545.196218 74.472727C402.152727 74.472727 286.161455 192.269964 286.161455 337.566255S402.152727 600.659782 545.196218 600.659782zM949.527273 819.330327C949.527273 911.806836 770.308655 986.763636 549.236364 986.763636S148.945455 911.806836 148.945455 819.348945c0-92.476509 179.218618-167.433309 400.290909-167.433309S949.527273 726.872436 949.527273 819.330327z" fill="#3766FF" p-id="7676"></path></svg>